<?xml version="1.0" encoding="UTF-8" standalone="no"?>
<!-- Generator: Adobe Illustrator 19.0.0, SVG Export Plug-In . SVG Version: 6.00 Build 0)  -->

<svg
   xmlns:dc="http://purl.org/dc/elements/1.1/"
   xmlns:cc="http://creativecommons.org/ns#"
   xmlns:rdf="http://www.w3.org/1999/02/22-rdf-syntax-ns#"
   xmlns:svg="http://www.w3.org/2000/svg"
   xmlns="http://www.w3.org/2000/svg"
   xmlns:sodipodi="http://sodipodi.sourceforge.net/DTD/sodipodi-0.dtd"
   xmlns:inkscape="http://www.inkscape.org/namespaces/inkscape"
   version="1.1"
   id="Capa_1"
   x="0px"
   y="0px"
   viewBox="0 0 60 60"
   style="enable-background:new 0 0 60 60;"
   xml:space="preserve"
   inkscape:version="0.91 r13725"
   sodipodi:docname="cloud-kite.svg"><metadata
     id="metadata43"><rdf:RDF><cc:Work
         rdf:about=""><dc:format>image/svg+xml</dc:format><dc:type
           rdf:resource="http://purl.org/dc/dcmitype/StillImage" /><dc:title></dc:title></cc:Work></rdf:RDF></metadata><defs
     id="defs41" /><sodipodi:namedview
     pagecolor="#ffffff"
     bordercolor="#666666"
     borderopacity="1"
     objecttolerance="10"
     gridtolerance="10"
     guidetolerance="10"
     inkscape:pageopacity="0"
     inkscape:pageshadow="2"
     inkscape:window-width="1920"
     inkscape:window-height="1020"
     id="namedview39"
     showgrid="false"
     inkscape:zoom="3.9333333"
     inkscape:cx="30.508475"
     inkscape:cy="30"
     inkscape:window-x="0"
     inkscape:window-y="0"
     inkscape:window-maximized="1"
     inkscape:current-layer="Capa_1" /><path
     style="fill:#7FABDA;stroke:#7383BF;stroke-width:2;stroke-linecap:round;stroke-miterlimit:10;"
     d="M50.003,27  c-0.115-8.699-7.193-16-15.919-16c-5.559,0-10.779,3.005-13.661,7.336C19.157,17.493,17.636,17,16,17c-4.418,0-8,3.582-8,8  c0,0.153,0.014,0.302,0.023,0.454C8.013,25.636,8,25.82,8,26c-3.988,1.912-7,6.457-7,11.155C1,43.67,6.33,49,12.845,49h24.507  c0.138,0,0.272-0.016,0.408-0.021C37.897,48.984,38.031,49,38.169,49h9.803C54.037,49,59,44.037,59,37.972  C59,32.601,55.106,27.961,50.003,27z"
     id="path3" /><path
     style="fill:#7FABDA;stroke:#7383BF;stroke-width:2;stroke-linecap:round;stroke-miterlimit:10;"
     d="M50.003,27  c0,0-2.535-0.375-5.003,0"
     id="path5" /><path
     style="fill:#7FABDA;stroke:#7383BF;stroke-width:2;stroke-linecap:round;stroke-miterlimit:10;"
     d="M8,25c0-4.418,3.582-8,8-8  s8,3.582,8,8"
     id="path7" /><g
     id="g9" /><g
     id="g11" /><g
     id="g13" /><g
     id="g15" /><g
     id="g17" /><g
     id="g19" /><g
     id="g21" /><g
     id="g23" /><g
     id="g25" /><g
     id="g27" /><g
     id="g29" /><g
     id="g31" /><g
     id="g33" /><g
     id="g35" /><g
     id="g37" /><path
     style="fill:none;fill-rule:evenodd;stroke:#000000;stroke-width:1px;stroke-linecap:butt;stroke-linejoin:miter;stroke-opacity:1"
     d="m 37.881356,55.677966 c 0.0727,-1.198486 -0.971565,0.299622 -1.271187,0 -0.635369,-0.635369 -0.139784,-1.843452 0,-2.542373 0.592775,-2.963872 -0.171161,-0.03653 0.762712,-3.305085 0.169492,-0.59322 0.338983,-1.18644 0.508475,-1.779661 0.08475,-0.677966 0.07819,-1.373725 0.254237,-2.033898 0.609249,-2.284682 0.697188,-1.187316 1.525424,-3.050847 0.141911,-0.3193 0.143742,-0.685465 0.254237,-1.016949 0.05992,-0.179773 0.18386,-0.332531 0.254238,-0.508475 0.09953,-0.248822 0.116357,-0.532913 0.254237,-0.762712 0.123323,-0.205539 0.364656,-0.316717 0.508474,-0.508474 0.113699,-0.151598 0.140539,-0.356877 0.254238,-0.508475 0.143818,-0.191758 0.385151,-0.302936 0.508474,-0.508475 0.13788,-0.229799 0.116358,-0.532912 0.254238,-0.762711 0.123323,-0.205539 0.338983,-0.338984 0.508474,-0.508475 0.169492,-0.169492 0.321303,-0.358737 0.508475,-0.508475 0.238598,-0.190878 0.524113,-0.317595 0.762712,-0.508474 0.374344,-0.299476 0.677966,-0.677966 1.016949,-1.016949 0.169491,-0.169492 0.338983,-0.338983 0.508474,-0.508475 0.169492,-0.169491 0.364657,-0.316717 0.508475,-0.508475 0.113698,-0.151597 0.140539,-0.356876 0.254237,-0.508474 0.287637,-0.383516 0.729313,-0.633434 1.016949,-1.016949 0.113699,-0.151598 0.140539,-0.356877 0.254238,-0.508475 0.08166,-0.108883 0.939877,-0.862805 1.016949,-1.016949 0.0379,-0.0758 -0.05992,-0.194313 0,-0.254237 0.05992,-0.05992 0.314161,-0.05992 0.254237,0 -0.133995,0.133995 -0.334299,0.17959 -0.508475,0.254237 -0.41947,0.179773 -0.857631,0.315482 -1.271186,0.508475 -0.858596,0.400678 -1.766162,0.727838 -2.542373,1.271186 -0.934037,0.653826 -1.715774,1.502866 -2.542373,2.288136 -2.520129,2.394122 -4.731154,5.144122 -7.627118,7.118644 -0.972739,0.663231 -2.037257,1.180721 -3.050848,1.779661 -0.850851,0.502775 -1.676411,1.049145 -2.542373,1.525423 -1.124994,0.618747 -3.737985,1.77118 -4.830508,2.542373 C 22.908094,49.33307 22.288136,50 21.610169,50.59322 c -0.847457,0.677966 -1.65328,1.411534 -2.542372,2.033899 -0.809645,0.566751 -1.741181,0.946785 -2.542373,1.525423 -2.271588,1.640591 -1.462398,1.384655 -3.050848,2.796611 -0.405572,0.360508 -0.86281,0.659619 -1.271186,1.016949 -0.541172,0.473525 -0.973002,1.065072 -1.525424,1.525423 -0.469468,0.391224 -1.0933033,0.584829 -1.5254236,1.01695 -0.3763709,0.37637 -0.2666999,1.271186 -1.0169492,1.271186 -0.084746,0 0,-0.169492 0,-0.254237 0,-0.169492 0,-0.338983 0,-0.508475 0,-0.06166 -0.00818,-0.754535 0,-0.762712 0.059924,-0.05992 0.194313,0.05992 0.2542373,0 0.059924,-0.05992 -0.059924,-0.194313 0,-0.254237 0.059924,-0.05992 0.2542373,-0.08475 0.2542373,0 0,0.08475 -0.1694915,0 -0.2542373,0"
     id="path4171"
     inkscape:connector-curvature="0" /><path
     style="fill:none;fill-rule:evenodd;stroke:#000000;stroke-width:1px;stroke-linecap:butt;stroke-linejoin:miter;stroke-opacity:1"
     d="m 18.813559,24.915254 c 0.700167,-0.302005 1.313885,-0.254237 2.033899,-0.254237 0.169491,0 0.344043,0.04111 0.508474,0 0.18384,-0.04596 0.328702,-0.194313 0.508475,-0.254237 0.126192,-0.04207 0.74106,-0.02165 0.762712,0 0.05992,0.05992 0,0.169491 0,0.254237 0.08474,0.08475 0.154517,0.187757 0.254237,0.254237 0.157671,0.105114 0.350803,0.149123 0.508475,0.254238 0.29916,0.19944 0.475075,0.546984 0.762711,0.762711 0.151598,0.113699 0.37448,0.120243 0.508475,0.254238 0.133995,0.133994 0.140539,0.356876 0.254237,0.508474 0.215728,0.287637 0.563272,0.463552 0.762712,0.762712 0.210228,0.315343 0.338983,0.677966 0.508475,1.016949 0.08475,0.169492 0.169491,0.338983 0.254237,0.508475 0.08475,0.169491 0.208277,0.324635 0.254237,0.508474 0.05,0.199988 0,1.261037 0,1.525424 0,0.169492 0.0536,0.347681 0,0.508475 -0.0758,0.227396 -0.401278,0.294083 -0.508474,0.508474 -0.0379,0.0758 0,0.169492 0,0.254238 -0.08475,0.169491 -0.149123,0.350803 -0.254238,0.508474 0.02538,0.503659 -0.374479,0.120243 -0.508474,0.254237 -0.133995,0.133995 -0.169492,0.338984 -0.254237,0.508475 -0.169492,0.08475 -0.356877,0.140539 -0.508475,0.254237 -0.191758,0.143819 -0.294083,0.401279 -0.508475,0.508475 -0.151597,0.0758 -0.344043,-0.04111 -0.508474,0 -0.367679,0.09192 -0.649271,0.416555 -1.016949,0.508474 -0.164431,0.04111 -0.347681,-0.0536 -0.508475,0 -0.113698,0.0379 -0.140539,0.216338 -0.254237,0.254238 -0.116381,0.03879 -1.129282,0 -1.271187,0 -0.08474,0 -0.194313,0.05992 -0.254237,0 -0.05992,-0.05992 -0.0379,-0.178439 0,-0.254238 0.03375,-0.0675 0.695209,-0.72896 0.762712,-0.762711 0.0758,-0.0379 0.194313,0.05992 0.254237,0 0.05992,-0.05992 -0.05992,-0.194313 0,-0.254238 0.05992,-0.05992 0.169492,0 0.254237,0"
     id="path4173"
     inkscape:connector-curvature="0" /><path
     style="fill:none;fill-rule:evenodd;stroke:#000000;stroke-width:1px;stroke-linecap:butt;stroke-linejoin:miter;stroke-opacity:1"
     d="m 22.372881,35.338983 c 2.658407,0 -0.09792,-0.151598 1.525424,0.254237 0.164431,0.04111 0.342275,-0.03324 0.508475,0 0.262785,0.05256 0.499926,0.201681 0.762712,0.254238 0.1662,0.03324 0.344043,-0.04111 0.508474,0 0.183839,0.04596 0.338983,0.169491 0.508475,0.254237 0.169491,0.08475 0.338983,0.169491 0.508474,0.254237 0.338983,0.169492 0.677966,0.338983 1.016949,0.508475 0.169492,0.08475 0.350804,0.149123 0.508475,0.254237 0.09972,0.06648 0.154517,0.187757 0.254237,0.254237 0.128032,0.560127 0.523015,0.134389 0.762712,0.254238 1.058075,0.529037 -0.271789,-0.01755 0.254237,0.508474 0.05992,0.05992 0.173841,-0.0268 0.254238,0 0.179773,0.05992 0.328701,0.194313 0.508474,0.254238 0.0804,0.0268 0.194313,-0.05992 0.254238,0 0.133994,0.133994 0.120242,0.374479 0.254237,0.508474 0.05992,0.05992 0.178438,-0.0379 0.254237,0 0.0675,0.03375 0.728961,0.695209 0.762712,0.762712 0.0379,0.0758 0,0.169491 0,0.254237 0,0.08475 0,0.169492 0,0.254238 0,0.20467 0.05319,0.857376 0,1.016949 -0.05992,0.179773 -0.194313,0.328701 -0.254237,0.508474 -0.0268,0.0804 0.05992,0.194313 0,0.254238 -0.05992,0.05992 -0.194313,-0.05992 -0.254238,0 -0.133994,0.133994 -0.194313,0.328701 -0.254237,0.508474 -0.0268,0.0804 0.05992,0.194313 0,0.254237 -0.133995,0.133995 -0.328702,0.194313 -0.508474,0.254238 -0.0804,0.0268 -0.194313,-0.05992 -0.254238,0 -0.05992,0.05992 0.0379,0.178438 0,0.254237 -0.0536,0.107196 -0.169491,0.169492 -0.254237,0.254237 -0.08475,0.08475 -0.147041,0.20064 -0.254237,0.254238 -0.06573,0.03287 -1.34522,0 -1.525424,0 -0.508475,0 -1.016949,0 -1.525424,0 -0.169491,0 -0.344043,0.04111 -0.508474,0 -1.210084,-0.302521 0.193135,-0.205954 -1.016949,-0.508475 -0.164431,-0.04111 -0.338984,0 -0.508475,0 -0.169492,0 -0.338983,0 -0.508475,0 -0.508474,0 -1.016949,0 -1.525423,0 -0.254238,0 -0.521522,0.0804 -0.762712,0 -0.113699,-0.0379 -0.147042,-0.200639 -0.254238,-0.254237 -0.134433,-0.06722 -0.893086,0.03097 -1.016949,0 -0.183839,-0.04596 -0.328701,-0.194313 -0.508474,-0.254238 -0.147273,-0.04909 -0.796631,0 -1.016949,0 -0.596232,0 0.119848,0.05992 -0.508475,-0.254237 -0.16039,-0.0802 -1.110796,0.08019 -1.271186,0 -0.107196,-0.0536 -0.147042,-0.200639 -0.254238,-0.254237 -0.168489,-0.08424 -0.803866,0.07103 -1.016949,0 -0.179773,-0.05992 -0.328702,-0.194313 -0.508474,-0.254237 -0.0804,-0.0268 -0.173841,0.0268 -0.254238,0 -0.179773,-0.05992 -0.324635,-0.208278 -0.508474,-0.254238 -0.188711,-0.04718 -0.938913,0.07804 -1.016949,0 -0.05992,-0.05992 -0.08475,-0.254237 0,-0.254237 0.08474,0 0,0.169491 0,0.254237"
     id="path4175"
     inkscape:connector-curvature="0" /></svg>