<?xml version="1.0" encoding="iso-8859-1"?>
<!-- Generator: Adobe Illustrator 19.0.0, SVG Export Plug-In . SVG Version: 6.00 Build 0)  -->
<svg version="1.1" id="Layer_1" xmlns="http://www.w3.org/2000/svg" xmlns:xlink="http://www.w3.org/1999/xlink" x="0px" y="0px"
	 viewBox="0 0 512.001 512.001" style="enable-background:new 0 0 512.001 512.001;" xml:space="preserve">
<polygon style="fill:#FCC447;" points="187.267,328.593 487.072,257.866 487.072,28.789 257.996,28.789 "/>
<path style="fill:#A67C52;" d="M498.253,280.704c-2.844,0-5.688-1.085-7.859-3.255L238.873,25.926c-4.34-4.34-4.34-11.377,0-15.717
	s11.377-4.34,15.717,0l251.523,251.523c4.34,4.34,4.34,11.377,0,15.717C503.942,279.619,501.098,280.704,498.253,280.704z"/>
<!--hvostiki - verjovochki golubie-->
<path id="thread" style="fill:#73D8D0;" d="M6.787,508.142c-1.066,0-2.147-0.252-3.157-0.783c-3.319-1.747-4.594-5.854-2.848-9.174
	c26.67-50.672,53.845-51.387,85.313-52.213c15.098-0.396,32.212-0.847,52.157-6.713c13.141-3.865,22.13-11.063,27.481-22.006
	c9.598-19.628,4.862-46.381,0.687-61.905c-9.086,11.119-25.64,26.932-49.678,32.86c-25.172,6.206-52.193,0.067-80.312-18.251
	c-3.143-2.047-4.032-6.254-1.983-9.397c2.047-3.144,6.257-4.031,9.397-1.983c24.841,16.181,48.273,21.715,69.645,16.444
	c32.184-7.936,49.175-37.75,49.342-38.051c1.281-2.289,3.76-3.64,6.38-3.462c2.617,0.174,4.899,1.84,5.864,4.279
	c0.814,2.058,19.75,50.83,2.88,85.394c-7.019,14.38-19.087,24.173-35.87,29.109c-21.647,6.367-39.703,6.842-55.632,7.26
	c-30.523,0.801-50.687,1.332-73.65,44.961C11.587,506.822,9.229,508.142,6.787,508.142z">

	<animateTransform
					 attributeName="transform"
					 type="rotate"
					 values="0; -5; -2; 0"
					 keyTimes="0; 0.5; 0.8; 1"
					 dur="5s"
					 begin="0s"
					 repeatCount="indefinite"
					 additive="sum" accumulate="sum"
					 />

</path>

<path style="fill:#A67C52;" d="M162.861,364.113c-2.844,0-5.688-1.084-7.859-3.255c-4.34-4.34-4.34-11.377,0-15.717L493.029,7.115
	c4.341-4.34,11.377-4.34,15.717,0c4.34,4.34,4.34,11.377,0,15.717L170.719,360.858C168.55,363.028,165.706,364.113,162.861,364.113z
	"/>
<!--privjazochki na palochkah - golubie-->
<g>
	<path style="fill:#73D8D0;" d="M190.821,350.016c-2.37,0-4.741-0.904-6.548-2.713l-17.961-17.961
		c-3.617-3.617-3.617-9.481,0-13.097c3.617-3.617,9.481-3.617,13.097,0l17.961,17.961c3.617,3.617,3.617,9.481,0,13.097
		C195.562,349.112,193.192,350.016,190.821,350.016z"/>
	<path style="fill:#73D8D0;" d="M499.533,41.305c-2.37,0-4.741-0.904-6.548-2.713l-17.961-17.961c-3.617-3.617-3.617-9.481,0-13.097
		c3.617-3.617,9.481-3.617,13.097,0l17.961,17.961c3.617,3.617,3.617,9.481,0,13.097C504.273,40.401,501.903,41.305,499.533,41.305z
		"/>
	<path style="fill:#73D8D0;" d="M481.977,279.02c-2.37,0-4.741-0.904-6.548-2.713c-3.617-3.617-3.617-9.481,0-13.097l17.961-17.961
		c3.617-3.617,9.481-3.617,13.097,0c3.617,3.617,3.617,9.481,0,13.097l-17.961,17.961
		C486.717,278.116,484.348,279.02,481.977,279.02z"/>
	<path style="fill:#73D8D0;" d="M244.653,41.696c-2.37,0-4.741-0.904-6.548-2.713c-3.617-3.617-3.617-9.481,0-13.097l17.961-17.961
		c3.617-3.617,9.481-3.617,13.097,0c3.617,3.617,3.617,9.481,0,13.097l-17.961,17.961C249.394,40.791,247.024,41.696,244.653,41.696
		z"/>
</g>
<g>
</g>
<g>
</g>
<g>
</g>
<g>
</g>
<g>
</g>
<g>
</g>
<g>
</g>
<g>
</g>
<g>
</g>
<g>
</g>
<g>
</g>
<g>
</g>
<g>
</g>
<g>
</g>
<g>
</g>
</svg>
