<?xml version="1.0" encoding="UTF-8" standalone="no"?>
<!-- Generator: Adobe Illustrator 19.0.0, SVG Export Plug-In . SVG Version: 6.00 Build 0)  -->

<svg
   xmlns:dc="http://purl.org/dc/elements/1.1/"
   xmlns:cc="http://creativecommons.org/ns#"
   xmlns:rdf="http://www.w3.org/1999/02/22-rdf-syntax-ns#"
   xmlns:svg="http://www.w3.org/2000/svg"
   xmlns="http://www.w3.org/2000/svg"
   xmlns:sodipodi="http://sodipodi.sourceforge.net/DTD/sodipodi-0.dtd"
   xmlns:inkscape="http://www.inkscape.org/namespaces/inkscape"
   version="1.1"
   id="Layer_1"
   x="0px"
   y="0px"
   viewBox="0 0 1666.1878 1579.6214"

   inkscape:version="0.91 r13725"
   sodipodi:docname="kite5.svg"
   width="1666.1876"
   height="1579.6212"><metadata
     id="metadata54"><rdf:RDF><cc:Work
         rdf:about=""><dc:format>image/svg+xml</dc:format><dc:type
           rdf:resource="http://purl.org/dc/dcmitype/StillImage" /><dc:title></dc:title></cc:Work></rdf:RDF></metadata><defs
     id="defs52" /><sodipodi:namedview
     pagecolor="#ffffff"
     bordercolor="#666666"
     borderopacity="1"
     objecttolerance="10"
     gridtolerance="10"
     guidetolerance="10"
     inkscape:pageopacity="0"
     inkscape:pageshadow="2"
     inkscape:window-width="1920"
     inkscape:window-height="1020"
     id="namedview50"
     showgrid="false"
     fit-margin-top="0"
     fit-margin-left="0"
     fit-margin-right="0"
     fit-margin-bottom="0"
     inkscape:zoom="0.46093662"
     inkscape:cx="1414.5263"
     inkscape:cy="745.98509"
     inkscape:window-x="0"
     inkscape:window-y="0"
     inkscape:window-maximized="1"
     inkscape:current-layer="Layer_1" /><polygon
     style="fill:#fcc447"
     points="187.267,328.593 487.072,257.866 487.072,28.789 257.996,28.789 "
     id="polygon3"
     transform="translate(1154.1868,-3.86)" /><path
     style="fill:#a67c52"
     d="m 1652.4398,276.84399 c -2.844,0 -5.688,-1.085 -7.859,-3.255 L 1393.0598,22.066 c -4.34,-4.34 -4.34,-11.377 0,-15.717 4.34,-4.34 11.377,-4.34 15.717,0 l 251.523,251.52299 c 4.34,4.34 4.34,11.377 0,15.717 -2.171,2.17 -5.015,3.255 -7.86,3.255 z"
     id="path5"
     inkscape:connector-curvature="0" /><!--hvostiki - verjovochki golubie--><path
     id="thread"
     style="fill:#73d8d0"
     d="m 1160.9738,504.282 c -1.066,0 -2.147,-0.252 -3.157,-0.783 -3.319,-1.747 -4.594,-5.854 -2.848,-9.174 26.67,-50.672 53.845,-51.387 85.313,-52.213 15.098,-0.396 32.212,-0.847 52.157,-6.713 13.141,-3.865 22.13,-11.06301 27.481,-22.00601 9.598,-19.628 4.862,-46.381 0.687,-61.905 -9.086,11.119 -25.64,26.932 -49.678,32.86 -25.172,6.206 -52.193,0.067 -80.312,-18.251 -3.143,-2.047 -4.032,-6.254 -1.983,-9.397 2.047,-3.144 6.257,-4.031 9.397,-1.983 24.841,16.181 48.273,21.715 69.645,16.444 32.184,-7.936 49.175,-37.75 49.342,-38.051 1.281,-2.289 3.76,-3.64 6.38,-3.462 2.617,0.174 4.899,1.84 5.864,4.279 0.814,2.058 19.75,50.83 2.88,85.394 -7.019,14.38001 -19.087,24.17301 -35.87,29.10901 -21.647,6.367 -39.703,6.842 -55.632,7.26 -30.523,0.801 -50.687,1.332 -73.65,44.961 -1.216,2.311 -3.574,3.631 -6.016,3.631 z"
     inkscape:connector-curvature="0"><animateTransform
       accumulate="sum"
       additive="sum"
       repeatCount="indefinite"
       begin="0s"
       dur="5s"
       keyTimes="0; 0.5; 0.8; 1"
       values="0; -5; -2; 0"
       type="rotate"
       attributeName="transform" /></path><path
     style="fill:#a67c52"
     d="m 1317.0478,360.25299 c -2.844,0 -5.688,-1.084 -7.859,-3.255 -4.34,-4.34 -4.34,-11.377 0,-15.717 L 1647.2158,3.255 c 4.341,-4.34 11.377,-4.34 15.717,0 4.34,4.34 4.34,11.377 0,15.717 l -338.027,338.02599 c -2.169,2.17 -5.013,3.255 -7.858,3.255 z"
     id="path8"
     inkscape:connector-curvature="0" /><!--privjazochki na palochkah - golubie--><g
     id="g10"
     transform="translate(1154.1868,-3.86)"><path
       style="fill:#73d8d0"
       d="m 190.821,350.016 c -2.37,0 -4.741,-0.904 -6.548,-2.713 l -17.961,-17.961 c -3.617,-3.617 -3.617,-9.481 0,-13.097 3.617,-3.617 9.481,-3.617 13.097,0 l 17.961,17.961 c 3.617,3.617 3.617,9.481 0,13.097 -1.808,1.809 -4.178,2.713 -6.549,2.713 z"
       id="path12"
       inkscape:connector-curvature="0" /><path
       style="fill:#73d8d0"
       d="m 499.533,41.305 c -2.37,0 -4.741,-0.904 -6.548,-2.713 L 475.024,20.631 c -3.617,-3.617 -3.617,-9.481 0,-13.097 3.617,-3.617 9.481,-3.617 13.097,0 l 17.961,17.961 c 3.617,3.617 3.617,9.481 0,13.097 -1.809,1.809 -4.179,2.713 -6.549,2.713 z"
       id="path14"
       inkscape:connector-curvature="0" /><path
       style="fill:#73d8d0"
       d="m 481.977,279.02 c -2.37,0 -4.741,-0.904 -6.548,-2.713 -3.617,-3.617 -3.617,-9.481 0,-13.097 l 17.961,-17.961 c 3.617,-3.617 9.481,-3.617 13.097,0 3.617,3.617 3.617,9.481 0,13.097 l -17.961,17.961 c -1.809,1.809 -4.178,2.713 -6.549,2.713 z"
       id="path16"
       inkscape:connector-curvature="0" /><path
       style="fill:#73d8d0"
       d="m 244.653,41.696 c -2.37,0 -4.741,-0.904 -6.548,-2.713 -3.617,-3.617 -3.617,-9.481 0,-13.097 L 256.066,7.925 c 3.617,-3.617 9.481,-3.617 13.097,0 3.617,3.617 3.617,9.481 0,13.097 l -17.961,17.961 c -1.808,1.808 -4.178,2.713 -6.549,2.713 z"
       id="path18"
       inkscape:connector-curvature="0" /></g><g
     id="g20"
     transform="translate(1154.1868,-3.86)" /><g
     id="g22"
     transform="translate(1154.1868,-3.86)" /><g
     id="g24"
     transform="translate(1154.1868,-3.86)" /><g
     id="g26"
     transform="translate(1154.1868,-3.86)" /><g
     id="g28"
     transform="translate(1154.1868,-3.86)" /><g
     id="g30"
     transform="translate(1154.1868,-3.86)" /><g
     id="g32"
     transform="translate(1154.1868,-3.86)" /><g
     id="g34"
     transform="translate(1154.1868,-3.86)" /><g
     id="g36"
     transform="translate(1154.1868,-3.86)" /><g
     id="g38"
     transform="translate(1154.1868,-3.86)" /><g
     id="g40"
     transform="translate(1154.1868,-3.86)" /><g
     id="g42"
     transform="translate(1154.1868,-3.86)" /><g
     id="g44"
     transform="translate(1154.1868,-3.86)" /><g
     id="g46"
     transform="translate(1154.1868,-3.86)" /><g
     id="g48"
     transform="translate(1154.1868,-3.86)" /><path
     style="fill:none;fill-rule:evenodd;stroke:#73d8d0;stroke-width:14.9739399;stroke-linecap:butt;stroke-linejoin:miter;stroke-miterlimit:4;stroke-dasharray:none;stroke-opacity:1"
     d="M 1333.9788,328.14542 C 1239.6956,590.84956 1044.5425,772.87265 870.31108,956.76621 651.98226,1134.6433 407.27082,1261.8435 197.77152,1456.13 136.58219,1503.3208 72.565541,1547.1462 2.5568988,1572.5845"
     id="path4182"
     inkscape:connector-curvature="0" /></svg>
