<?xml version="1.0" encoding="iso-8859-1"?>
<!-- Generator: Adobe Illustrator 19.0.0, SVG Export Plug-In . SVG Version: 6.00 Build 0)  -->
<svg version="1.1" id="Layer_1" xmlns="http://www.w3.org/2000/svg" xmlns:xlink="http://www.w3.org/1999/xlink" x="0px" y="0px"
	 viewBox="0 0 511.999 511.999" style="enable-background:new 0 0 511.999 511.999;" xml:space="preserve">
<polygon style="fill:#9AD14B;" points="352.953,133.953 187.947,298.947 250.946,31.958 250.958,31.958 "/>
<polygon style="fill:#2BA5F7;" points="454.936,31.958 454.936,31.97 352.953,133.953 250.958,31.958 "/>
<polygon style="fill:#F95428;" points="454.936,31.97 454.936,235.948 352.953,133.953 "/>
<polygon style="fill:#F7B239;" points="352.953,133.953 454.936,235.948 187.947,298.959 187.947,298.947 "/>
<path style="fill:#995C0D;" d="M478.173,267.907c-2.232,0-4.465-0.851-6.167-2.555L245.055,38.391
	c-0.094-0.087-0.187-0.176-0.278-0.266l-23.225-23.237c-3.405-3.408-3.404-8.929,0.003-12.335c3.408-3.405,8.929-3.404,12.335,0.003
	l22.961,22.972c0.093,0.085,0.185,0.173,0.274,0.263L484.34,253.017c3.406,3.406,3.406,8.929,0,12.335
	C482.638,267.056,480.405,267.907,478.173,267.907z"/>
<path style="fill:#2BA5F7;" d="M95.847,511.999c-0.75,0-1.512-0.145-2.247-0.455c-2.961-1.242-4.355-4.651-3.113-7.612
	c4.895-11.669,4.279-24.758-1.693-35.91c-5.972-11.152-16.523-18.922-28.947-21.317l-0.598-0.115
	c-19.788-3.823-34.144-21.2-34.144-41.322c0-4.716,0.802-9.401,2.385-13.923c6.97-19.927,27.804-31.656,48.456-27.284
	l146.677,31.075c1.943,0.411,3.926,0.619,5.889,0.619c11.554,0,21.833-6.934,26.186-17.665c3.174-7.822,2.703-16.574-1.289-24.012
	c-3.993-7.437-11.025-12.665-19.296-14.343l-39.149-7.955c-7.917-1.604-14.284-7.404-16.615-15.136
	c-2.349-7.793-0.342-15.884,5.365-21.676c1.061-1.126,2.564-1.829,4.231-1.829c3.211,0,5.815,2.598,5.815,5.809v0.012
	c0,1.542-0.613,3.021-1.703,4.112c-2.719,2.719-3.682,6.538-2.573,10.216c1.109,3.679,4.022,6.33,7.792,7.094l39.15,7.955
	c11.671,2.368,21.596,9.745,27.229,20.241c5.635,10.496,6.298,22.847,1.819,33.884c-6.141,15.141-20.65,24.924-36.964,24.924
	c-2.767,0-5.558-0.292-8.294-0.87L73.536,375.44c-14.948-3.165-30.025,5.324-35.069,19.747c-1.15,3.285-1.733,6.678-1.733,10.082
	c0,14.561,10.393,27.136,24.711,29.902l0.595,0.114c15.888,3.062,29.373,12.993,37.005,27.248
	c7.633,14.255,8.421,30.985,2.164,45.899C100.277,510.658,98.118,511.998,95.847,511.999z"/>
<path style="fill:#995C0D;" d="M187.947,307.67c-2.232,0-4.465-0.851-6.169-2.555c-3.406-3.406-3.405-8.929,0-12.336
	l165.007-164.994L448.502,26.067c0.087-0.095,0.176-0.187,0.266-0.279l19.935-19.922c3.406-3.405,8.929-3.402,12.335,0.003
	c3.406,3.408,3.404,8.931-0.003,12.336l-19.671,19.658c-0.085,0.093-0.172,0.184-0.262,0.273L194.113,305.115
	C192.411,306.819,190.179,307.67,187.947,307.67z"/>
<g>
</g>
<g>
</g>
<g>
</g>
<g>
</g>
<g>
</g>
<g>
</g>
<g>
</g>
<g>
</g>
<g>
</g>
<g>
</g>
<g>
</g>
<g>
</g>
<g>
</g>
<g>
</g>
<g>
</g>
</svg>
