<?xml version="1.0" encoding="UTF-8"?>
<!-- Generator: Adobe Illustrator 19.0.0, SVG Export Plug-In . SVG Version: 6.00 Build 0)  -->

<svg
   xmlns:dc="http://purl.org/dc/elements/1.1/"
   xmlns:cc="http://creativecommons.org/ns#"
   xmlns:rdf="http://www.w3.org/1999/02/22-rdf-syntax-ns#"
   xmlns:svg="http://www.w3.org/2000/svg"
   xmlns="http://www.w3.org/2000/svg"
   xmlns:sodipodi="http://sodipodi.sourceforge.net/DTD/sodipodi-0.dtd"
   xmlns:inkscape="http://www.inkscape.org/namespaces/inkscape"
   version="1.1"
   id="Layer_1"
   x="0px"
   y="0px"
   viewBox="0 0 1199.3682 1812.5969"
   xml:space="preserve"
   inkscape:version="0.91 r13725"
   sodipodi:docname="kite222.svg"
   width="1199.3682"
   height="1812.5968"
   preserveAspectRatio="none">
   <metadata
     id="metadata54"><rdf:RDF><cc:Work
         rdf:about=""><dc:format>image/svg+xml</dc:format><dc:type
           rdf:resource="http://purl.org/dc/dcmitype/StillImage" /><dc:title></dc:title></cc:Work></rdf:RDF></metadata><defs
     id="defs52" /><sodipodi:namedview
     pagecolor="#ffffff"
     bordercolor="#666666"
     borderopacity="1"
     objecttolerance="10"
     gridtolerance="10"
     guidetolerance="10"
     inkscape:pageopacity="0"
     inkscape:pageshadow="2"
     inkscape:window-width="1920"
     inkscape:window-height="1020"
     id="namedview50"
     showgrid="false"
     inkscape:zoom="0.46093662"
     inkscape:cx="947.7066"
     inkscape:cy="1014.9457"
     inkscape:window-x="0"
     inkscape:window-y="0"
     inkscape:window-maximized="1"
     inkscape:current-layer="Layer_1"
     inkscape:showpageshadow="true"
     fit-margin-top="0"
     fit-margin-left="0"
     fit-margin-right="0"
     fit-margin-bottom="0" /><!--hvostiki - verjovochki golubie--><!--privjazochki na palochkah - golubie--><g
     id="g20"
     transform="translate(687.36712,-3.86)" /><g
     id="g22"
     transform="translate(687.36712,-3.86)" /><g
     id="g24"
     transform="translate(687.36712,-3.86)" /><g
     id="g26"
     transform="translate(687.36712,-3.86)" /><g
     id="g28"
     transform="translate(687.36712,-3.86)" /><g
     id="g30"
     transform="translate(687.36712,-3.86)" /><g
     id="g32"
     transform="translate(687.36712,-3.86)" /><g
     id="g34"
     transform="translate(687.36712,-3.86)" /><g
     id="g36"
     transform="translate(687.36712,-3.86)" /><g
     id="g38"
     transform="translate(687.36712,-3.86)" /><g
     id="g40"
     transform="translate(687.36712,-3.86)" /><g
     id="g42"
     transform="translate(687.36712,-3.86)" /><g
     id="g44"
     transform="translate(687.36712,-3.86)" /><g
     id="g46"
     transform="translate(687.36712,-3.86)" /><g
     id="g48"
     transform="translate(687.36712,-3.86)" /><g
     id="g4381"
     transform="translate(687.36712,-3.86)"><polygon
       id="polygon3"
       points="257.996,28.789 187.267,328.593 487.072,257.866 487.072,28.789 "
       style="fill:#fcc447" /><path
       id="path5"
       d="m 498.253,280.704 c -2.844,0 -5.688,-1.085 -7.859,-3.255 L 238.873,25.926 c -4.34,-4.34 -4.34,-11.377 0,-15.717 4.34,-4.34 11.377,-4.34 15.717,0 l 251.523,251.523 c 4.34,4.34 4.34,11.377 0,15.717 -2.171,2.17 -5.015,3.255 -7.86,3.255 z"
       style="fill:#a67c52"
       inkscape:connector-curvature="0" /><path
       d="m 6.787,508.142 c -1.066,0 -2.147,-0.252 -3.157,-0.783 -3.319,-1.747 -4.594,-5.854 -2.848,-9.174 26.67,-50.672 53.845,-51.387 85.313,-52.213 15.098,-0.396 32.212,-0.847 52.157,-6.713 13.141,-3.865 22.13,-11.063 27.481,-22.006 9.598,-19.628 4.862,-46.381 0.687,-61.905 -9.086,11.119 -25.64,26.932 -49.678,32.86 -25.172,6.206 -52.193,0.067 -80.312,-18.251 -3.143,-2.047 -4.032,-6.254 -1.983,-9.397 2.047,-3.144 6.257,-4.031 9.397,-1.983 24.841,16.181 48.273,21.715 69.645,16.444 32.184,-7.936 49.175,-37.75 49.342,-38.051 1.281,-2.289 3.76,-3.64 6.38,-3.462 2.617,0.174 4.899,1.84 5.864,4.279 0.814,2.058 19.75,50.83 2.88,85.394 -7.019,14.38 -19.087,24.173 -35.87,29.109 -21.647,6.367 -39.703,6.842 -55.632,7.26 -30.523,0.801 -50.687,1.332 -73.65,44.961 -1.216,2.311 -3.574,3.631 -6.016,3.631 z"
       style="fill:#73d8d0"
       id="thread"
       inkscape:connector-curvature="0"><animateTransform
         accumulate="sum"
         additive="sum"
         repeatCount="indefinite"
         begin="0s"
         dur="5s"
         keyTimes="0; 0.5; 0.8; 1"
         values="0; -5; -2; 0"
         type="rotate"
         attributeName="transform" /></path><path
       id="path8"
       d="m 162.861,364.113 c -2.844,0 -5.688,-1.084 -7.859,-3.255 -4.34,-4.34 -4.34,-11.377 0,-15.717 L 493.029,7.115 c 4.341,-4.34 11.377,-4.34 15.717,0 4.34,4.34 4.34,11.377 0,15.717 L 170.719,360.858 c -2.169,2.17 -5.013,3.255 -7.858,3.255 z"
       style="fill:#a67c52"
       inkscape:connector-curvature="0" /><g
       id="g10"><path
         id="path12"
         d="m 190.821,350.016 c -2.37,0 -4.741,-0.904 -6.548,-2.713 l -17.961,-17.961 c -3.617,-3.617 -3.617,-9.481 0,-13.097 3.617,-3.617 9.481,-3.617 13.097,0 l 17.961,17.961 c 3.617,3.617 3.617,9.481 0,13.097 -1.808,1.809 -4.178,2.713 -6.549,2.713 z"
         style="fill:#73d8d0"
         inkscape:connector-curvature="0" /><path
         id="path14"
         d="m 499.533,41.305 c -2.37,0 -4.741,-0.904 -6.548,-2.713 L 475.024,20.631 c -3.617,-3.617 -3.617,-9.481 0,-13.097 3.617,-3.617 9.481,-3.617 13.097,0 l 17.961,17.961 c 3.617,3.617 3.617,9.481 0,13.097 -1.809,1.809 -4.179,2.713 -6.549,2.713 z"
         style="fill:#73d8d0"
         inkscape:connector-curvature="0" /><path
         id="path16"
         d="m 481.977,279.02 c -2.37,0 -4.741,-0.904 -6.548,-2.713 -3.617,-3.617 -3.617,-9.481 0,-13.097 l 17.961,-17.961 c 3.617,-3.617 9.481,-3.617 13.097,0 3.617,3.617 3.617,9.481 0,13.097 l -17.961,17.961 c -1.809,1.809 -4.178,2.713 -6.549,2.713 z"
         style="fill:#73d8d0"
         inkscape:connector-curvature="0" /><path
         id="path18"
         d="m 244.653,41.696 c -2.37,0 -4.741,-0.904 -6.548,-2.713 -3.617,-3.617 -3.617,-9.481 0,-13.097 L 256.066,7.925 c 3.617,-3.617 9.481,-3.617 13.097,0 3.617,3.617 3.617,9.481 0,13.097 l -17.961,17.961 c -1.808,1.808 -4.178,2.713 -6.549,2.713 z"
         style="fill:#73d8d0"
         inkscape:connector-curvature="0" /></g><path
       inkscape:connector-curvature="0"
       id="path3555"
       d="m 179.96379,332.08093 c -160.634801,123.59345 -321.30471,255.30664 -429.67648,429.31812 -123.59259,151.2665 -220.05025,323.48015 -288.62904,506.19725 -62.61175,148.8081 -120.26711,302.3628 -142.10618,462.7746 1.01124,27.4819 15.22534,58.1141 -2.86614,83.158"
       style="fill:none;fill-rule:evenodd;stroke:#73d8d0;stroke-width:10;stroke-linecap:butt;stroke-linejoin:round;stroke-miterlimit:4;stroke-dasharray:none;stroke-opacity:1" /></g></svg>
